<?xml version="1.0" encoding="utf-8"?>
<!-- Generated by IcoMoon.io -->
<!DOCTYPE svg PUBLIC "-//W3C//DTD SVG 1.1//EN" "http://www.w3.org/Graphics/SVG/1.1/DTD/svg11.dtd">
<svg version="1.1" xmlns="http://www.w3.org/2000/svg" xmlns:xlink="http://www.w3.org/1999/xlink" width="16" height="16" viewBox="0 0 16 16">
<path d="M5 9.977c-0.4-0.197-0.853-0.31-1.333-0.31-1.657 0-3 1.343-3 3s1.343 3 3 3 3-1.343 3-3v-6.667c0-0.367 0.3-0.667 0.667-0.667h5.667c0.367 0 0.667 0.3 0.667 0.667v3.977c-0.4-0.197-0.854-0.31-1.333-0.31-1.657 0-3 1.343-3 3s1.343 3 3 3 3-1.343 3-3v-11.267c0-0.407-0.327-0.733-0.733-0.733h-8.867c-0.407 0-0.733 0.327-0.733 0.733v8.577z" fill="#597da3"></path>
</svg>
