<?xml version="1.0" encoding="UTF-8" standalone="no"?>
<!-- Generator: Adobe Illustrator 16.0.0, SVG Export Plug-In . SVG Version: 6.00 Build 0)  -->

<svg
   xmlns:dc="http://purl.org/dc/elements/1.1/"
   xmlns:cc="http://creativecommons.org/ns#"
   xmlns:rdf="http://www.w3.org/1999/02/22-rdf-syntax-ns#"
   xmlns:svg="http://www.w3.org/2000/svg"
   xmlns="http://www.w3.org/2000/svg"
   xmlns:xlink="http://www.w3.org/1999/xlink"
   xmlns:sodipodi="http://sodipodi.sourceforge.net/DTD/sodipodi-0.dtd"
   xmlns:inkscape="http://www.inkscape.org/namespaces/inkscape"
   version="1.1"
   id="Layer_1"
   x="0px"
   y="0px"
   width="22"
   height="22"
   viewBox="0 0 22 22"
   enable-background="new 0 0 415 414.996"
   xml:space="preserve"
   inkscape:version="0.48.3.1 r9886"
   sodipodi:docname="vk2.svg"><metadata
   id="metadata3265"><rdf:RDF><cc:Work
       rdf:about=""><dc:format>image/svg+xml</dc:format><dc:type
         rdf:resource="http://purl.org/dc/dcmitype/StillImage" /><dc:title /></cc:Work></rdf:RDF></metadata><defs
   id="defs3263"><linearGradient
     id="linearGradient3785"><stop
       style="stop-color:#3b75d2;stop-opacity:1;"
       offset="0"
       id="stop3787" /><stop
       style="stop-color:#5eb1f1;stop-opacity:1;"
       offset="1"
       id="stop3789" /></linearGradient><filter
     id="filter4577"
     style="color-interpolation-filters:sRGB;"
     inkscape:label="Drop Shadow"><feFlood
       id="feFlood4579"
       flood-opacity="0.667"
       flood-color="rgb(0,0,0)"
       result="flood" /><feComposite
       id="feComposite4581"
       in2="SourceGraphic"
       in="flood"
       operator="in"
       result="composite1" /><feOffset
       id="feOffset4583"
       dx="-0.2"
       dy="0.3"
       result="offset" /><feComposite
       id="feComposite4585"
       in2="offset"
       in="SourceGraphic"
       operator="over"
       result="composite2" /></filter><linearGradient
     inkscape:collect="always"
     xlink:href="#linearGradient3785"
     id="linearGradient3791"
     x1="13.006289"
     y1="19.232704"
     x2="12.833333"
     y2="4.1163521"
     gradientUnits="userSpaceOnUse" /></defs><sodipodi:namedview
   pagecolor="#ffffff"
   bordercolor="#666666"
   borderopacity="1"
   objecttolerance="10"
   gridtolerance="10"
   guidetolerance="10"
   inkscape:pageopacity="0"
   inkscape:pageshadow="2"
   inkscape:window-width="1101"
   inkscape:window-height="655"
   id="namedview3261"
   showgrid="false"
   inkscape:zoom="16"
   inkscape:cx="15.383048"
   inkscape:cy="7.2817095"
   inkscape:window-x="585"
   inkscape:window-y="75"
   inkscape:window-maximized="0"
   inkscape:current-layer="Layer_1" />
<path
   d="m 17.368574,16.838607 c -0.03201,0 -0.06322,0 -0.09523,0 -1.023381,-0.168073 -1.720723,-0.890364 -2.316232,-1.558704 -0.335045,-0.378075 -0.850922,-1.232938 -1.465247,-1.1344 -0.872324,0.140531 -0.438715,1.629758 -0.803365,2.268127 -0.294025,0.515447 -1.546544,0.422436 -2.410318,0.330388 C 7.5518594,16.454831 6.1586672,15.000368 4.937358,13.436869 3.6317139,11.76591 2.6153332,10.01741 1.6757145,8.0976182 1.3713624,7.476237 0.96689849,6.7887107 0.96689849,6.0186153 1.4088256,5.6589931 2.1299189,5.7825922 2.8576674,5.7825922 c 0.6169077,0 1.5803928,-0.1357331 2.0320155,0.094589 C 5.1582928,6.0129142 5.4293124,6.7376897 5.6462316,7.1999162 6.1439804,8.2608359 6.601799,9.0243841 7.2060282,9.8929639 7.4676965,10.269516 7.8696361,10.979675 8.340306,10.885198 8.797379,10.793939 8.8404645,9.6683412 8.8602,8.9484194 8.8830908,8.1308038 8.8592853,7.1143009 8.6240618,6.6803498 8.4018649,6.2707237 7.9953353,6.2625965 7.584159,6.018559 7.9263184,5.3309763 8.8642159,5.2622914 9.9949367,5.2622914 c 0.9498313,0 2.2763003,-0.1050307 2.6466853,0.5203571 0.377099,0.6367324 0.118359,1.7849051 0.09449,2.6454138 -0.02623,0.9671765 -0.1938,1.9659017 0.473192,2.4102367 0.512553,-0.05564 0.788447,-0.555066 1.086548,-0.9453344 0.652133,-0.8540754 1.055391,-1.5933549 1.559738,-2.6930474 0.206993,-0.4517291 0.42879,-1.2289354 0.803364,-1.3703687 0.570838,-0.215762 1.480855,-0.0469 2.31623,-0.0469 0.684951,0 1.907119,-0.1890669 2.127251,0.283657 0.182497,0.3919048 -0.35478,1.3817127 -0.519836,1.6531788 -0.633317,1.0375542 -1.254298,1.6984422 -1.937584,2.5986263 -0.273601,0.360357 -0.837788,0.936473 -0.804167,1.512592 0.02548,0.437055 0.464933,0.772465 0.804167,1.086825 0.733485,0.681036 1.248387,1.177239 1.843094,1.936722 0.223458,0.286143 0.708012,0.905716 0.661198,1.275893 -0.14377,1.154495 -2.864122,0.430564 -3.780734,0.708465 z"
   id="path3259"
   inkscape:connector-curvature="0"
   style="fill:url(#linearGradient3791);fill-opacity:1;filter:url(#filter4577);opacity:1" />
<path
   style="opacity:0;fill:#f5f5f5;fill-opacity:1;stroke:#004d4d;stroke-width:0.03459119;stroke-linejoin:round;stroke-opacity:1"
   d="m 16.984321,16.752873 c -0.720207,-0.212028 -1.439014,-0.786375 -2.301,-1.838565 -0.563463,-0.687795 -0.946065,-0.901075 -1.329235,-0.740976 -0.155615,0.06502 -0.24203,0.140544 -0.309007,0.270063 -0.07011,0.135585 -0.08182,0.190424 -0.137696,0.645284 -0.02688,0.21879 -0.06922,0.562977 -0.0941,0.764861 -0.06217,0.504494 -0.133332,0.643034 -0.392391,0.763907 -0.313864,0.146445 -0.596122,0.179052 -1.341055,0.154919 C 9.7681391,16.729871 8.8781391,16.524424 7.8971698,16.037682 6.6525727,15.420131 5.7112011,14.501881 4.2706707,12.500256 3.4950496,11.422527 2.7205171,10.109259 1.8825094,8.4509804 1.1658168,7.0327643 0.99622645,6.5928084 0.99622645,6.1517604 c 0,-0.1474989 0.006565,-0.1575484 0.14701255,-0.2250298 0.080857,-0.03885 0.2170598,-0.085693 0.302673,-0.1040965 0.085613,-0.018403 0.8094339,-0.038595 1.6084905,-0.044871 1.9174654,-0.01506 1.8829268,-0.025565 2.2274049,0.6774536 0.094021,0.1918794 0.3264793,0.6679753 0.5165756,1.0579911 0.5706596,1.1708096 1.6332039,2.8435942 2.0281623,3.1929782 0.1040559,0.09205 0.3342883,0.195329 0.4373645,0.196199 0.1572561,0.0013 0.3176108,-0.138598 0.4021991,-0.350958 C 8.8189231,10.167784 8.8595349,9.7633361 8.8617743,8.6028302 8.8652625,6.7952348 8.7611876,6.5166251 7.9528478,6.1696232 L 7.6029849,6.0194351 7.6635994,5.9154545 C 7.8021983,5.6776957 8.0757337,5.5082875 8.4966671,5.3995117 8.8626478,5.3049365 9.8237205,5.2535122 10.80283,5.2761155 c 1.932799,0.04462 2.140819,0.3023667 1.972996,2.4446392 -0.154699,1.9747339 -0.09913,2.6025703 0.263403,2.9761383 0.125267,0.129079 0.153716,0.142775 0.260553,0.125438 0.195049,-0.03165 0.411369,-0.182351 0.624168,-0.434826 0.241136,-0.286093 0.367849,-0.4498051 0.386478,-0.4993227 0.0076,-0.020303 0.04035,-0.065313 0.07268,-0.1000229 0.107145,-0.1150067 0.281408,-0.3724185 0.252845,-0.373488 -0.01545,-5.777e-4 -0.0023,-0.016123 0.02928,-0.034543 0.165842,-0.096802 0.946572,-1.5631842 1.396968,-2.623811 0.373891,-0.8804693 0.527999,-1.005014 1.24717,-1.0079238 0.169355,-6.852e-4 0.962492,0.00467 1.762526,0.011906 1.568014,0.014177 1.72441,0.029778 1.917902,0.1913123 0.154183,0.128717 0.175196,0.3412857 0.06899,0.6979005 C 20.838418,7.3895006 20.407243,8.0541665 18.950171,9.9 c -0.913451,1.157169 -0.959139,1.224136 -1.058493,1.551501 -0.07646,0.251931 -0.063,0.483373 0.04015,0.690363 0.09992,0.200506 0.277253,0.388942 1.031879,1.096466 0.956997,0.897262 1.757781,1.844385 2.059573,2.435945 0.100887,0.197754 0.127903,0.468792 0.06236,0.625651 -0.06033,0.14438 -0.262021,0.292176 -0.53658,0.39319 -0.189833,0.06984 -0.260786,0.07326 -1.53082,0.07365 -0.732469,2.42e-4 -1.440723,0.01163 -1.573899,0.02533 -0.189853,0.01954 -0.289186,0.01107 -0.460019,-0.03922 z"
   id="path2987"
   inkscape:connector-curvature="0" /><path
   style="opacity:0;fill:#f5f5f5;fill-opacity:1;stroke:#004d4d;stroke-width:0.03459119;stroke-linejoin:round;stroke-opacity:1"
   d="m 16.984321,16.752873 c -0.720207,-0.212028 -1.439014,-0.786375 -2.301,-1.838565 -0.563463,-0.687795 -0.946065,-0.901075 -1.329235,-0.740976 -0.155615,0.06502 -0.24203,0.140544 -0.309007,0.270063 -0.07011,0.135585 -0.08182,0.190424 -0.137696,0.645284 -0.02688,0.21879 -0.06922,0.562977 -0.0941,0.764861 -0.06217,0.504494 -0.133332,0.643034 -0.392391,0.763907 -0.313864,0.146445 -0.596122,0.179052 -1.341055,0.154919 C 9.7681391,16.729871 8.8781391,16.524424 7.8971698,16.037682 6.6525727,15.420131 5.7112011,14.501881 4.2706707,12.500256 3.4950496,11.422527 2.7205171,10.109259 1.8825094,8.4509804 1.1658168,7.0327643 0.99622645,6.5928084 0.99622645,6.1517604 c 0,-0.1474989 0.006565,-0.1575484 0.14701255,-0.2250298 0.080857,-0.03885 0.2170598,-0.085693 0.302673,-0.1040965 0.085613,-0.018403 0.8094339,-0.038595 1.6084905,-0.044871 1.9174654,-0.01506 1.8829268,-0.025565 2.2274049,0.6774536 0.094021,0.1918794 0.3264793,0.6679753 0.5165756,1.0579911 0.5706596,1.1708096 1.6332039,2.8435942 2.0281623,3.1929782 0.1040559,0.09205 0.3342883,0.195329 0.4373645,0.196199 0.1572561,0.0013 0.3176108,-0.138598 0.4021991,-0.350958 C 8.8189231,10.167784 8.8595349,9.7633361 8.8617743,8.6028302 8.8652625,6.7952348 8.7611876,6.5166251 7.9528478,6.1696232 L 7.6029849,6.0194351 7.6635994,5.9154545 C 7.8021983,5.6776957 8.0757337,5.5082875 8.4966671,5.3995117 8.8626478,5.3049365 9.8237205,5.2535122 10.80283,5.2761155 c 1.932799,0.04462 2.140819,0.3023667 1.972996,2.4446392 -0.154699,1.9747339 -0.09913,2.6025703 0.263403,2.9761383 0.125267,0.129079 0.153716,0.142775 0.260553,0.125438 0.195049,-0.03165 0.411369,-0.182351 0.624168,-0.434826 0.241136,-0.286093 0.367849,-0.4498051 0.386478,-0.4993227 0.0076,-0.020303 0.04035,-0.065313 0.07268,-0.1000229 0.107145,-0.1150067 0.281408,-0.3724185 0.252845,-0.373488 -0.01545,-5.777e-4 -0.0023,-0.016123 0.02928,-0.034543 0.165842,-0.096802 0.946572,-1.5631842 1.396968,-2.623811 0.373891,-0.8804693 0.527999,-1.005014 1.24717,-1.0079238 0.169355,-6.852e-4 0.962492,0.00467 1.762526,0.011906 1.568014,0.014177 1.72441,0.029778 1.917902,0.1913123 0.154183,0.128717 0.175196,0.3412857 0.06899,0.6979005 C 20.838418,7.3895006 20.407243,8.0541665 18.950171,9.9 c -0.913451,1.157169 -0.959139,1.224136 -1.058493,1.551501 -0.07646,0.251931 -0.063,0.483373 0.04015,0.690363 0.09992,0.200506 0.277253,0.388942 1.031879,1.096466 0.956997,0.897262 1.757781,1.844385 2.059573,2.435945 0.100887,0.197754 0.127903,0.468792 0.06236,0.625651 -0.06033,0.14438 -0.262021,0.292176 -0.53658,0.39319 -0.189833,0.06984 -0.260786,0.07326 -1.53082,0.07365 -0.732469,2.42e-4 -1.440723,0.01163 -1.573899,0.02533 -0.189853,0.01954 -0.289186,0.01107 -0.460019,-0.03922 z"
   id="path2989"
   inkscape:connector-curvature="0" /><path
   style="opacity:0;fill:#ffd5d5;fill-opacity:1;stroke:#004d4d;stroke-width:0.03459119000000000;stroke-linejoin:round;stroke-opacity:1"
   d="m 16.984321,16.752873 c -0.720207,-0.212028 -1.439014,-0.786375 -2.301,-1.838565 -0.563463,-0.687795 -0.946065,-0.901075 -1.329235,-0.740976 -0.155615,0.06502 -0.24203,0.140544 -0.309007,0.270063 -0.07011,0.135585 -0.08182,0.190424 -0.137696,0.645284 -0.02688,0.21879 -0.06922,0.562977 -0.0941,0.764861 -0.06217,0.504494 -0.133332,0.643034 -0.392391,0.763907 -0.313864,0.146445 -0.596122,0.179052 -1.341055,0.154919 C 9.7681391,16.729871 8.8781391,16.524424 7.8971698,16.037682 6.6525727,15.420131 5.7112011,14.501881 4.2706707,12.500256 3.4950496,11.422527 2.7205171,10.109259 1.8825094,8.4509804 1.1658168,7.0327643 0.99622645,6.5928084 0.99622645,6.1517604 c 0,-0.1474989 0.006565,-0.1575484 0.14701255,-0.2250298 0.080857,-0.03885 0.2170598,-0.085693 0.302673,-0.1040965 0.085613,-0.018403 0.8094339,-0.038595 1.6084905,-0.044871 1.9174654,-0.01506 1.8829268,-0.025565 2.2274049,0.6774536 0.094021,0.1918794 0.3264793,0.6679753 0.5165756,1.0579911 0.5706596,1.1708096 1.6332039,2.8435942 2.0281623,3.1929782 0.1040559,0.09205 0.3342883,0.195329 0.4373645,0.196199 0.1572561,0.0013 0.3176108,-0.138598 0.4021991,-0.350958 C 8.8189231,10.167784 8.8595349,9.7633361 8.8617743,8.6028302 8.8652625,6.7952348 8.7611876,6.5166251 7.9528478,6.1696232 L 7.6029849,6.0194351 7.6635994,5.9154545 C 7.8021983,5.6776957 8.0757337,5.5082875 8.4966671,5.3995117 8.8626478,5.3049365 9.8237205,5.2535122 10.80283,5.2761155 c 1.932799,0.04462 2.140819,0.3023667 1.972996,2.4446392 -0.154699,1.9747339 -0.09913,2.6025703 0.263403,2.9761383 0.125267,0.129079 0.153716,0.142775 0.260553,0.125438 0.195049,-0.03165 0.411369,-0.182351 0.624168,-0.434826 0.241136,-0.286093 0.367849,-0.4498051 0.386478,-0.4993227 0.0076,-0.020303 0.04035,-0.065313 0.07268,-0.1000229 0.107145,-0.1150067 0.281408,-0.3724185 0.252845,-0.373488 -0.01545,-5.777e-4 -0.0023,-0.016123 0.02928,-0.034543 0.165842,-0.096802 0.946572,-1.5631842 1.396968,-2.623811 0.373891,-0.8804693 0.527999,-1.005014 1.24717,-1.0079238 0.169355,-6.852e-4 0.962492,0.00467 1.762526,0.011906 1.568014,0.014177 1.72441,0.029778 1.917902,0.1913123 0.154183,0.128717 0.175196,0.3412857 0.06899,0.6979005 C 20.838418,7.3895006 20.407243,8.0541665 18.950171,9.9 c -0.913451,1.157169 -0.959139,1.224136 -1.058493,1.551501 -0.07646,0.251931 -0.063,0.483373 0.04015,0.690363 0.09992,0.200506 0.277253,0.388942 1.031879,1.096466 0.956997,0.897262 1.757781,1.844385 2.059573,2.435945 0.100887,0.197754 0.127903,0.468792 0.06236,0.625651 -0.06033,0.14438 -0.262021,0.292176 -0.53658,0.39319 -0.189833,0.06984 -0.260786,0.07326 -1.53082,0.07365 -0.732469,2.42e-4 -1.440723,0.01163 -1.573899,0.02533 -0.189853,0.01954 -0.289186,0.01107 -0.460019,-0.03922 z"
   id="path2991"
   inkscape:connector-curvature="0" /><path
   style="opacity:0;fill:#ffd5d5;fill-opacity:1;stroke:#004d4d;stroke-width:0.03459119;stroke-linejoin:round;stroke-opacity:1"
   d="m 16.984321,16.752873 c -0.720207,-0.212028 -1.439014,-0.786375 -2.301,-1.838565 -0.563463,-0.687795 -0.946065,-0.901075 -1.329235,-0.740976 -0.155615,0.06502 -0.24203,0.140544 -0.309007,0.270063 -0.07011,0.135585 -0.08182,0.190424 -0.137696,0.645284 -0.02688,0.21879 -0.06922,0.562977 -0.0941,0.764861 -0.06217,0.504494 -0.133332,0.643034 -0.392391,0.763907 -0.313864,0.146445 -0.596122,0.179052 -1.341055,0.154919 C 9.7681391,16.729871 8.8781391,16.524424 7.8971698,16.037682 6.6525727,15.420131 5.7112011,14.501881 4.2706707,12.500256 3.4950496,11.422527 2.7205171,10.109259 1.8825094,8.4509804 1.1658168,7.0327643 0.99622645,6.5928084 0.99622645,6.1517604 c 0,-0.1474989 0.006565,-0.1575484 0.14701255,-0.2250298 0.080857,-0.03885 0.2170598,-0.085693 0.302673,-0.1040965 0.085613,-0.018403 0.8094339,-0.038595 1.6084905,-0.044871 1.9174654,-0.01506 1.8829268,-0.025565 2.2274049,0.6774536 0.094021,0.1918794 0.3264793,0.6679753 0.5165756,1.0579911 0.5706596,1.1708096 1.6332039,2.8435942 2.0281623,3.1929782 0.1040559,0.09205 0.3342883,0.195329 0.4373645,0.196199 0.1572561,0.0013 0.3176108,-0.138598 0.4021991,-0.350958 C 8.8189231,10.167784 8.8595349,9.7633361 8.8617743,8.6028302 8.8652625,6.7952348 8.7611876,6.5166251 7.9528478,6.1696232 L 7.6029849,6.0194351 7.6635994,5.9154545 C 7.8021983,5.6776957 8.0757337,5.5082875 8.4966671,5.3995117 8.8626478,5.3049365 9.8237205,5.2535122 10.80283,5.2761155 c 1.932799,0.04462 2.140819,0.3023667 1.972996,2.4446392 -0.154699,1.9747339 -0.09913,2.6025703 0.263403,2.9761383 0.125267,0.129079 0.153716,0.142775 0.260553,0.125438 0.195049,-0.03165 0.411369,-0.182351 0.624168,-0.434826 0.241136,-0.286093 0.367849,-0.4498051 0.386478,-0.4993227 0.0076,-0.020303 0.04035,-0.065313 0.07268,-0.1000229 0.107145,-0.1150067 0.281408,-0.3724185 0.252845,-0.373488 -0.01545,-5.777e-4 -0.0023,-0.016123 0.02928,-0.034543 0.165842,-0.096802 0.946572,-1.5631842 1.396968,-2.623811 0.373891,-0.8804693 0.527999,-1.005014 1.24717,-1.0079238 0.169355,-6.852e-4 0.962492,0.00467 1.762526,0.011906 1.568014,0.014177 1.72441,0.029778 1.917902,0.1913123 0.154183,0.128717 0.175196,0.3412857 0.06899,0.6979005 C 20.838418,7.3895006 20.407243,8.0541665 18.950171,9.9 c -0.913451,1.157169 -0.959139,1.224136 -1.058493,1.551501 -0.07646,0.251931 -0.063,0.483373 0.04015,0.690363 0.09992,0.200506 0.277253,0.388942 1.031879,1.096466 0.956997,0.897262 1.757781,1.844385 2.059573,2.435945 0.100887,0.197754 0.127903,0.468792 0.06236,0.625651 -0.06033,0.14438 -0.262021,0.292176 -0.53658,0.39319 -0.189833,0.06984 -0.260786,0.07326 -1.53082,0.07365 -0.732469,2.42e-4 -1.440723,0.01163 -1.573899,0.02533 -0.189853,0.01954 -0.289186,0.01107 -0.460019,-0.03922 z"
   id="path2993"
   inkscape:connector-curvature="0" /><path
   style="opacity:0;fill:#f9f9f9;fill-opacity:1;stroke:#004d4d;stroke-width:0.03459119000000000;stroke-linejoin:round;stroke-opacity:1"
   d="m 17.051549,16.769972 c -0.74655,-0.196449 -1.390524,-0.688922 -2.266363,-1.73318 -0.500665,-0.596941 -0.585844,-0.678481 -0.846845,-0.810672 -0.251283,-0.12727 -0.429224,-0.135085 -0.641255,-0.02816 -0.245337,0.123716 -0.338817,0.334098 -0.400375,0.901063 -0.12582,1.158848 -0.154996,1.279316 -0.348451,1.438779 -0.189844,0.156485 -0.44735,0.216199 -1.019248,0.236355 C 10.180958,16.821665 8.8361648,16.543052 7.8067626,16.002982 6.7169726,15.431229 5.835508,14.600281 4.6719224,13.047799 3.6672594,11.707354 3.0029217,10.626681 2.0457262,8.7757862 1.3087949,7.3508081 1.1379128,6.9607764 1.0339068,6.4663491 0.96178759,6.1235065 0.96808562,6.0441303 1.0728541,5.9754834 1.3156698,5.8163845 1.3877834,5.8083885 2.8172723,5.7820612 4.251469,5.7556472 4.6007037,5.774026 4.8408572,5.8885542 5.0214768,5.9746909 5.153354,6.178871 5.4657015,6.8559749 6.0139664,8.0444985 6.357652,8.6580371 7.0836756,9.7443396 7.684619,10.643493 7.8863981,10.854461 8.1835628,10.89432 8.4421001,10.928997 8.5756062,10.816113 8.6949127,10.461957 8.8296858,10.061889 8.8524804,9.7937711 8.8529681,8.6028302 8.8533677,7.6276225 8.8442487,7.4184855 8.7903747,7.1672956 8.664847,6.5820187 8.5623765,6.455775 7.9973037,6.1902328 7.7927833,6.0941233 7.6254484,6.0018915 7.6254484,5.9852732 c 0,-0.016618 0.064248,-0.099916 0.1427724,-0.185105 0.1715083,-0.1860647 0.4791005,-0.3440274 0.8084854,-0.4151947 0.5783219,-0.1249528 2.6563708,-0.14793 3.2224188,-0.035631 0.520786,0.1033196 0.816053,0.319698 0.930382,0.6818061 0.08584,0.2718673 0.0994,0.9059903 0.03762,1.7587881 -0.147642,2.0379254 -0.09961,2.5533193 0.272647,2.9255773 0.137183,0.137182 0.156035,0.145489 0.271228,0.119509 0.19499,-0.04398 0.417973,-0.192407 0.585879,-0.389993 0.256264,-0.301562 0.860035,-1.1585125 1.125785,-1.5978615 0.279358,-0.4618465 0.776704,-1.4576776 1.027639,-2.0576336 0.285026,-0.6814631 0.441522,-0.8954559 0.715624,-0.9785444 0.188381,-0.057104 3.699855,-0.046322 3.917699,0.012029 0.538229,0.1441683 0.567333,0.4929499 0.119401,1.4309034 -0.2996,0.6273507 -0.685425,1.1751679 -1.948886,2.7671451 -0.81501,1.026924 -0.994527,1.325854 -1.018048,1.695238 -0.02327,0.36544 0.07801,0.535611 0.626702,1.052996 1.738273,1.63909 2.65173,2.769411 2.652883,3.282702 6.92e-4,0.308558 -0.159612,0.492178 -0.553121,0.633563 -0.220785,0.07933 -0.248876,0.08079 -1.556604,0.08121 -0.732468,2.43e-4 -1.43294,0.01129 -1.556603,0.02457 -0.148934,0.01599 -0.283234,0.0088 -0.397799,-0.02138 l 0,0 z"
   id="path2995"
   inkscape:connector-curvature="0" /><path
   style="opacity:0;fill:#f9f9f9;fill-opacity:1;stroke:#004d4d;stroke-width:0.03459119;stroke-linejoin:round;stroke-opacity:1"
   d="m 17.051549,16.769972 c -0.74655,-0.196449 -1.390524,-0.688922 -2.266363,-1.73318 -0.500665,-0.596941 -0.585844,-0.678481 -0.846845,-0.810672 -0.251283,-0.12727 -0.429224,-0.135085 -0.641255,-0.02816 -0.245337,0.123716 -0.338817,0.334098 -0.400375,0.901063 -0.12582,1.158848 -0.154996,1.279316 -0.348451,1.438779 -0.189844,0.156485 -0.44735,0.216199 -1.019248,0.236355 C 10.180958,16.821665 8.8361648,16.543052 7.8067626,16.002982 6.7169726,15.431229 5.835508,14.600281 4.6719224,13.047799 3.6672594,11.707354 3.0029217,10.626681 2.0457262,8.7757862 1.3087949,7.3508081 1.1379128,6.9607764 1.0339068,6.4663491 0.96178759,6.1235065 0.96808562,6.0441303 1.0728541,5.9754834 1.3156698,5.8163845 1.3877834,5.8083885 2.8172723,5.7820612 4.251469,5.7556472 4.6007037,5.774026 4.8408572,5.8885542 5.0214768,5.9746909 5.153354,6.178871 5.4657015,6.8559749 6.0139664,8.0444985 6.357652,8.6580371 7.0836756,9.7443396 7.684619,10.643493 7.8863981,10.854461 8.1835628,10.89432 8.4421001,10.928997 8.5756062,10.816113 8.6949127,10.461957 8.8296858,10.061889 8.8524804,9.7937711 8.8529681,8.6028302 8.8533677,7.6276225 8.8442487,7.4184855 8.7903747,7.1672956 8.664847,6.5820187 8.5623765,6.455775 7.9973037,6.1902328 7.7927833,6.0941233 7.6254484,6.0018915 7.6254484,5.9852732 c 0,-0.016618 0.064248,-0.099916 0.1427724,-0.185105 0.1715083,-0.1860647 0.4791005,-0.3440274 0.8084854,-0.4151947 0.5783219,-0.1249528 2.6563708,-0.14793 3.2224188,-0.035631 0.520786,0.1033196 0.816053,0.319698 0.930382,0.6818061 0.08584,0.2718673 0.0994,0.9059903 0.03762,1.7587881 -0.147642,2.0379254 -0.09961,2.5533193 0.272647,2.9255773 0.137183,0.137182 0.156035,0.145489 0.271228,0.119509 0.19499,-0.04398 0.417973,-0.192407 0.585879,-0.389993 0.256264,-0.301562 0.860035,-1.1585125 1.125785,-1.5978615 0.279358,-0.4618465 0.776704,-1.4576776 1.027639,-2.0576336 0.285026,-0.6814631 0.441522,-0.8954559 0.715624,-0.9785444 0.188381,-0.057104 3.699855,-0.046322 3.917699,0.012029 0.538229,0.1441683 0.567333,0.4929499 0.119401,1.4309034 -0.2996,0.6273507 -0.685425,1.1751679 -1.948886,2.7671451 -0.81501,1.026924 -0.994527,1.325854 -1.018048,1.695238 -0.02327,0.36544 0.07801,0.535611 0.626702,1.052996 1.738273,1.63909 2.65173,2.769411 2.652883,3.282702 6.92e-4,0.308558 -0.159612,0.492178 -0.553121,0.633563 -0.220785,0.07933 -0.248876,0.08079 -1.556604,0.08121 -0.732468,2.43e-4 -1.43294,0.01129 -1.556603,0.02457 -0.148934,0.01599 -0.283234,0.0088 -0.397799,-0.02138 l 0,0 z"
   id="path2997"
   inkscape:connector-curvature="0" /></svg>